<svg width="512" height="512" viewBox="0 0 512 512" fill="none" xmlns="http://www.w3.org/2000/svg">
<rect width="512" height="512" fill="white"/>
<path d="M352.583 185.083H323.417V180.917H352.583V185.083Z" fill="black"/>
<path d="M188.583 316.354L185.646 313.417L174 325.063L162.354 313.417L159.417 316.354L171.062 328L159.417 339.646L162.354 342.583L174 330.938L185.646 342.583L188.583 339.646L176.937 328L188.583 316.354Z" fill="black"/>
<path d="M188.583 186.083H176.083V198.583H171.917V186.083H159.417V181.917H171.917V169.417H176.083V181.917H188.583V186.083Z" fill="black"/>
<path d="M352.167 324.167H323V320H352.167V324.167ZM352.167 336.667H323V332.5H352.167V336.667Z" fill="black"/>
</svg>
